<mxfile host="app.diagrams.net" modified="2020-12-09T07:01:59.413Z" agent="5.0 (Windows NT 10.0; Win64; x64) AppleWebKit/537.36 (KHTML, like Gecko) Chrome/86.0.4240.198 Safari/537.36" etag="KcVPOJG33DgpFp9SUn8n" version="13.11.0" type="github">
  <diagram id="RvOlapnKrb3wd_bGB16z" name="Page-1">
    <mxGraphModel dx="358" dy="-2872" grid="1" gridSize="10" guides="1" tooltips="1" connect="1" arrows="1" fold="1" page="1" pageScale="1" pageWidth="827" pageHeight="1169" math="0" shadow="0">
      <root>
        <mxCell id="0" />
        <mxCell id="1" parent="0" />
        <mxCell id="OIX_POswV1e51lXpxc2r-1" value="Amazon SageMaker" style="whiteSpace=wrap;html=1;fillColor=none;fontSize=14;fontColor=#000000;dashed=0;fontStyle=0;align=center;verticalAlign=top;strokeColor=#D86613;gradientColor=none;spacingLeft=0;labelPosition=center;verticalLabelPosition=bottom;" vertex="1" parent="1">
          <mxGeometry x="2098" y="5400" width="232" height="160" as="geometry" />
        </mxCell>
        <mxCell id="OIX_POswV1e51lXpxc2r-2" value="" style="whiteSpace=wrap;html=1;fillColor=none;fontSize=14;fontColor=#000000;dashed=0;fontStyle=0;align=center;verticalAlign=top;strokeColor=#CCCCCC;gradientColor=none;spacingLeft=0;labelPosition=center;verticalLabelPosition=bottom;" vertex="1" parent="1">
          <mxGeometry x="2108" y="5483" width="210" height="70" as="geometry" />
        </mxCell>
        <mxCell id="OIX_POswV1e51lXpxc2r-3" value="" style="outlineConnect=0;fontColor=#232F3E;gradientColor=none;fillColor=#277116;strokeColor=none;dashed=0;verticalLabelPosition=bottom;verticalAlign=top;align=center;html=1;fontSize=12;fontStyle=0;aspect=fixed;pointerEvents=1;shape=mxgraph.aws4.door_lock;" vertex="1" parent="1">
          <mxGeometry x="1290" y="5486" width="78" height="78" as="geometry" />
        </mxCell>
        <mxCell id="OIX_POswV1e51lXpxc2r-4" value="" style="outlineConnect=0;fontColor=#232F3E;gradientColor=none;fillColor=#277116;strokeColor=none;dashed=0;verticalLabelPosition=bottom;verticalAlign=top;align=center;html=1;fontSize=12;fontStyle=0;aspect=fixed;pointerEvents=1;shape=mxgraph.aws4.car;" vertex="1" parent="1">
          <mxGeometry x="1290" y="5581.5" width="78" height="78" as="geometry" />
        </mxCell>
        <mxCell id="OIX_POswV1e51lXpxc2r-5" value="" style="outlineConnect=0;fontColor=#232F3E;gradientColor=none;fillColor=#277116;strokeColor=none;dashed=0;verticalLabelPosition=bottom;verticalAlign=top;align=center;html=1;fontSize=12;fontStyle=0;aspect=fixed;pointerEvents=1;shape=mxgraph.aws4.camera;" vertex="1" parent="1">
          <mxGeometry x="1290" y="5677" width="78" height="78" as="geometry" />
        </mxCell>
        <mxCell id="OIX_POswV1e51lXpxc2r-6" value="" style="outlineConnect=0;fontColor=#232F3E;gradientColor=none;fillColor=#277116;strokeColor=none;dashed=0;verticalLabelPosition=bottom;verticalAlign=top;align=center;html=1;fontSize=12;fontStyle=0;aspect=fixed;pointerEvents=1;shape=mxgraph.aws4.utility;" vertex="1" parent="1">
          <mxGeometry x="1391" y="5532" width="78" height="78" as="geometry" />
        </mxCell>
        <mxCell id="OIX_POswV1e51lXpxc2r-7" value="" style="outlineConnect=0;fontColor=#232F3E;gradientColor=none;fillColor=#277116;strokeColor=none;dashed=0;verticalLabelPosition=bottom;verticalAlign=top;align=center;html=1;fontSize=12;fontStyle=0;aspect=fixed;pointerEvents=1;shape=mxgraph.aws4.coffee_pot;" vertex="1" parent="1">
          <mxGeometry x="1392" y="5636" width="78" height="78" as="geometry" />
        </mxCell>
        <mxCell id="OIX_POswV1e51lXpxc2r-8" value="" style="outlineConnect=0;fontColor=#232F3E;gradientColor=none;fillColor=#277116;strokeColor=none;dashed=0;verticalLabelPosition=bottom;verticalAlign=top;align=center;html=1;fontSize=12;fontStyle=0;aspect=fixed;pointerEvents=1;shape=mxgraph.aws4.lightbulb;" vertex="1" parent="1">
          <mxGeometry x="1489" y="5486" width="78" height="78" as="geometry" />
        </mxCell>
        <mxCell id="OIX_POswV1e51lXpxc2r-9" value="" style="outlineConnect=0;fontColor=#232F3E;gradientColor=none;fillColor=#277116;strokeColor=none;dashed=0;verticalLabelPosition=bottom;verticalAlign=top;align=center;html=1;fontSize=12;fontStyle=0;aspect=fixed;pointerEvents=1;shape=mxgraph.aws4.house;" vertex="1" parent="1">
          <mxGeometry x="1487" y="5581.5" width="78" height="78" as="geometry" />
        </mxCell>
        <mxCell id="OIX_POswV1e51lXpxc2r-10" value="" style="outlineConnect=0;fontColor=#232F3E;gradientColor=none;fillColor=#277116;strokeColor=none;dashed=0;verticalLabelPosition=bottom;verticalAlign=top;align=center;html=1;fontSize=12;fontStyle=0;aspect=fixed;pointerEvents=1;shape=mxgraph.aws4.thermostat;" vertex="1" parent="1">
          <mxGeometry x="1487" y="5677" width="78" height="78" as="geometry" />
        </mxCell>
        <mxCell id="OIX_POswV1e51lXpxc2r-11" value="1" style="rounded=1;whiteSpace=wrap;html=1;fillColor=#007CBD;strokeColor=none;fontColor=#FFFFFF;fontStyle=1;fontSize=22;" vertex="1" parent="1">
          <mxGeometry x="1297" y="5428" width="40" height="38" as="geometry" />
        </mxCell>
        <mxCell id="OIX_POswV1e51lXpxc2r-12" value="ML Model Executable" style="outlineConnect=0;fontColor=#232F3E;gradientColor=none;fillColor=#116D5B;strokeColor=none;dashed=0;verticalLabelPosition=bottom;verticalAlign=top;align=center;html=1;fontSize=12;fontStyle=0;aspect=fixed;pointerEvents=1;shape=mxgraph.aws4.sagemaker_model;" vertex="1" parent="1">
          <mxGeometry x="1699" y="5470" width="78" height="78" as="geometry" />
        </mxCell>
        <mxCell id="OIX_POswV1e51lXpxc2r-13" value="AWS Lambda Function" style="outlineConnect=0;fontColor=#232F3E;gradientColor=none;fillColor=#277116;strokeColor=none;dashed=0;verticalLabelPosition=bottom;verticalAlign=top;align=center;html=1;fontSize=12;fontStyle=0;aspect=fixed;pointerEvents=1;shape=mxgraph.aws4.lambda_function;" vertex="1" parent="1">
          <mxGeometry x="1699" y="5575" width="78" height="78" as="geometry" />
        </mxCell>
        <mxCell id="OIX_POswV1e51lXpxc2r-14" value="AWS IoT Greengrass Core" style="outlineConnect=0;fontColor=#232F3E;gradientColor=#60A337;gradientDirection=north;fillColor=#277116;strokeColor=#ffffff;dashed=0;verticalLabelPosition=bottom;verticalAlign=top;align=center;html=1;fontSize=12;fontStyle=0;aspect=fixed;shape=mxgraph.aws4.resourceIcon;resIcon=mxgraph.aws4.greengrass;" vertex="1" parent="1">
          <mxGeometry x="1699" y="5683" width="78" height="78" as="geometry" />
        </mxCell>
        <mxCell id="OIX_POswV1e51lXpxc2r-15" value="AWS IoT Core" style="outlineConnect=0;fontColor=#232F3E;gradientColor=#60A337;gradientDirection=north;strokeColor=#ffffff;dashed=0;verticalLabelPosition=bottom;verticalAlign=top;align=center;html=1;fontSize=12;fontStyle=0;aspect=fixed;shape=mxgraph.aws4.resourceIcon;resIcon=mxgraph.aws4.internet_of_things;fillColor=#60A337;" vertex="1" parent="1">
          <mxGeometry x="1971" y="5677" width="78" height="78" as="geometry" />
        </mxCell>
        <mxCell id="OIX_POswV1e51lXpxc2r-16" value="AWS IoT Analytics" style="outlineConnect=0;fontColor=#232F3E;gradientColor=#60A337;gradientDirection=north;fillColor=#277116;strokeColor=#ffffff;dashed=0;verticalLabelPosition=bottom;verticalAlign=top;align=center;html=1;fontSize=12;fontStyle=0;aspect=fixed;shape=mxgraph.aws4.resourceIcon;resIcon=mxgraph.aws4.iot_analytics;" vertex="1" parent="1">
          <mxGeometry x="2175" y="5677" width="78" height="78" as="geometry" />
        </mxCell>
        <mxCell id="OIX_POswV1e51lXpxc2r-17" value="ML Model Executable" style="outlineConnect=0;fontColor=#232F3E;gradientColor=none;fillColor=#116D5B;strokeColor=none;dashed=0;verticalLabelPosition=bottom;verticalAlign=top;align=center;html=1;fontSize=12;fontStyle=0;aspect=fixed;pointerEvents=1;shape=mxgraph.aws4.sagemaker_model;" vertex="1" parent="1">
          <mxGeometry x="1362" y="5917" width="78" height="78" as="geometry" />
        </mxCell>
        <mxCell id="OIX_POswV1e51lXpxc2r-18" value="AWS IoT Greengrass Core" style="outlineConnect=0;fontColor=#232F3E;gradientColor=#60A337;gradientDirection=north;fillColor=#277116;strokeColor=#ffffff;dashed=0;verticalLabelPosition=bottom;verticalAlign=top;align=center;html=1;fontSize=12;fontStyle=0;aspect=fixed;shape=mxgraph.aws4.resourceIcon;resIcon=mxgraph.aws4.iot_core;" vertex="1" parent="1">
          <mxGeometry x="1363" y="6021.5" width="78" height="78" as="geometry" />
        </mxCell>
        <mxCell id="OIX_POswV1e51lXpxc2r-19" value="Video Camera" style="outlineConnect=0;fontColor=#232F3E;gradientColor=none;fillColor=#277116;strokeColor=none;dashed=0;verticalLabelPosition=bottom;verticalAlign=top;align=center;html=1;fontSize=12;fontStyle=0;aspect=fixed;pointerEvents=1;shape=mxgraph.aws4.camera;" vertex="1" parent="1">
          <mxGeometry x="1363" y="6129" width="78" height="78" as="geometry" />
        </mxCell>
        <mxCell id="OIX_POswV1e51lXpxc2r-20" value="AWS IoT Core" style="outlineConnect=0;fontColor=#232F3E;gradientColor=#60A337;gradientDirection=north;fillColor=#277116;strokeColor=#ffffff;dashed=0;verticalLabelPosition=bottom;verticalAlign=top;align=center;html=1;fontSize=12;fontStyle=0;aspect=fixed;shape=mxgraph.aws4.resourceIcon;resIcon=mxgraph.aws4.internet_of_things;" vertex="1" parent="1">
          <mxGeometry x="1578" y="5937" width="78" height="78" as="geometry" />
        </mxCell>
        <mxCell id="OIX_POswV1e51lXpxc2r-21" value="AWS IoT Analytics" style="outlineConnect=0;fontColor=#232F3E;gradientColor=#60A337;gradientDirection=north;fillColor=#277116;strokeColor=#ffffff;dashed=0;verticalLabelPosition=bottom;verticalAlign=top;align=center;html=1;fontSize=12;fontStyle=0;aspect=fixed;shape=mxgraph.aws4.resourceIcon;resIcon=mxgraph.aws4.iot_analytics;" vertex="1" parent="1">
          <mxGeometry x="1758" y="5934" width="78" height="78" as="geometry" />
        </mxCell>
        <mxCell id="OIX_POswV1e51lXpxc2r-22" value="AWS IoT Events" style="outlineConnect=0;fontColor=#232F3E;gradientColor=#60A337;gradientDirection=north;fillColor=#277116;strokeColor=#ffffff;dashed=0;verticalLabelPosition=bottom;verticalAlign=top;align=center;html=1;fontSize=12;fontStyle=0;aspect=fixed;shape=mxgraph.aws4.resourceIcon;resIcon=mxgraph.aws4.iot_events;" vertex="1" parent="1">
          <mxGeometry x="1947" y="5934" width="78" height="78" as="geometry" />
        </mxCell>
        <mxCell id="OIX_POswV1e51lXpxc2r-23" value="Amazon SNS" style="outlineConnect=0;fontColor=#232F3E;gradientColor=#F34482;gradientDirection=north;fillColor=#BC1356;strokeColor=#ffffff;dashed=0;verticalLabelPosition=bottom;verticalAlign=top;align=center;html=1;fontSize=12;fontStyle=0;aspect=fixed;shape=mxgraph.aws4.resourceIcon;resIcon=mxgraph.aws4.sns;" vertex="1" parent="1">
          <mxGeometry x="2128" y="5934" width="78" height="78" as="geometry" />
        </mxCell>
        <mxCell id="OIX_POswV1e51lXpxc2r-24" value="Amazon Kinesis&lt;br&gt;Video Streams&lt;br&gt;" style="outlineConnect=0;fontColor=#232F3E;gradientColor=#945DF2;gradientDirection=north;fillColor=#5A30B5;strokeColor=#ffffff;dashed=0;verticalLabelPosition=bottom;verticalAlign=top;align=center;html=1;fontSize=12;fontStyle=0;aspect=fixed;shape=mxgraph.aws4.resourceIcon;resIcon=mxgraph.aws4.kinesis_video_streams;" vertex="1" parent="1">
          <mxGeometry x="1710" y="6100" width="78" height="78" as="geometry" />
        </mxCell>
        <mxCell id="OIX_POswV1e51lXpxc2r-25" value="Mobile Application" style="outlineConnect=0;fontColor=#232F3E;gradientColor=#F54749;gradientDirection=north;fillColor=#C7131F;strokeColor=#ffffff;dashed=0;verticalLabelPosition=bottom;verticalAlign=top;align=center;html=1;fontSize=12;fontStyle=0;aspect=fixed;shape=mxgraph.aws4.resourceIcon;resIcon=mxgraph.aws4.mobile;" vertex="1" parent="1">
          <mxGeometry x="2011" y="6099" width="78" height="78" as="geometry" />
        </mxCell>
        <mxCell id="OIX_POswV1e51lXpxc2r-26" value="2" style="rounded=1;whiteSpace=wrap;html=1;fillColor=#007CBD;strokeColor=none;fontColor=#FFFFFF;fontStyle=1;fontSize=22;" vertex="1" parent="1">
          <mxGeometry x="1709" y="5390" width="40" height="38" as="geometry" />
        </mxCell>
        <mxCell id="OIX_POswV1e51lXpxc2r-27" value="3" style="rounded=1;whiteSpace=wrap;html=1;fillColor=#007CBD;strokeColor=none;fontColor=#FFFFFF;fontStyle=1;fontSize=22;" vertex="1" parent="1">
          <mxGeometry x="2049" y="5401" width="40" height="38" as="geometry" />
        </mxCell>
        <mxCell id="OIX_POswV1e51lXpxc2r-28" value="4" style="rounded=1;whiteSpace=wrap;html=1;fillColor=#007CBD;strokeColor=none;fontColor=#FFFFFF;fontStyle=1;fontSize=22;" vertex="1" parent="1">
          <mxGeometry x="1859" y="5625" width="40" height="38" as="geometry" />
        </mxCell>
        <mxCell id="OIX_POswV1e51lXpxc2r-29" value="5" style="rounded=1;whiteSpace=wrap;html=1;fillColor=#007CBD;strokeColor=none;fontColor=#FFFFFF;fontStyle=1;fontSize=22;" vertex="1" parent="1">
          <mxGeometry x="2104" y="5625" width="40" height="38" as="geometry" />
        </mxCell>
        <mxCell id="OIX_POswV1e51lXpxc2r-30" value="6" style="rounded=1;whiteSpace=wrap;html=1;fillColor=#007CBD;strokeColor=none;fontColor=#FFFFFF;fontStyle=1;fontSize=22;" vertex="1" parent="1">
          <mxGeometry x="1362" y="5834" width="40" height="38" as="geometry" />
        </mxCell>
        <mxCell id="OIX_POswV1e51lXpxc2r-31" value="7" style="rounded=1;whiteSpace=wrap;html=1;fillColor=#007CBD;strokeColor=none;fontColor=#FFFFFF;fontStyle=1;fontSize=22;" vertex="1" parent="1">
          <mxGeometry x="1688" y="5892" width="40" height="38" as="geometry" />
        </mxCell>
        <mxCell id="OIX_POswV1e51lXpxc2r-32" value="8" style="rounded=1;whiteSpace=wrap;html=1;fillColor=#007CBD;strokeColor=none;fontColor=#FFFFFF;fontStyle=1;fontSize=22;" vertex="1" parent="1">
          <mxGeometry x="2058" y="5892" width="40" height="38" as="geometry" />
        </mxCell>
        <mxCell id="OIX_POswV1e51lXpxc2r-33" value="9" style="rounded=1;whiteSpace=wrap;html=1;fillColor=#007CBD;strokeColor=none;fontColor=#FFFFFF;fontStyle=1;fontSize=22;" vertex="1" parent="1">
          <mxGeometry x="1578" y="6080" width="40" height="38" as="geometry" />
        </mxCell>
        <mxCell id="OIX_POswV1e51lXpxc2r-34" value="10" style="rounded=1;whiteSpace=wrap;html=1;fillColor=#007CBD;strokeColor=none;fontColor=#FFFFFF;fontStyle=1;fontSize=22;" vertex="1" parent="1">
          <mxGeometry x="1878" y="6080" width="40" height="38" as="geometry" />
        </mxCell>
        <mxCell id="OIX_POswV1e51lXpxc2r-35" value="流媒体平台架构大图" style="text;html=1;resizable=0;points=[];autosize=1;align=left;verticalAlign=top;spacingTop=-4;fontSize=30;fontStyle=1" vertex="1" parent="1">
          <mxGeometry x="1274" y="4063.5" width="290" height="40" as="geometry" />
        </mxCell>
        <mxCell id="OIX_POswV1e51lXpxc2r-36" value="朱晓伟" style="text;html=1;resizable=0;points=[];autosize=1;align=left;verticalAlign=top;spacingTop=-4;fontSize=16;" vertex="1" parent="1">
          <mxGeometry x="1274" y="4113.5" width="60" height="20" as="geometry" />
        </mxCell>
        <mxCell id="OIX_POswV1e51lXpxc2r-37" value="Label" style="text;html=1;resizable=0;points=[];autosize=1;align=left;verticalAlign=top;spacingTop=-4;fontSize=16;fontStyle=1" vertex="1" parent="1">
          <mxGeometry x="1310" y="5390" width="50" height="20" as="geometry" />
        </mxCell>
        <mxCell id="OIX_POswV1e51lXpxc2r-38" value="" style="line;strokeWidth=2;html=1;fontSize=14;" vertex="1" parent="1">
          <mxGeometry x="1270" y="4138.5" width="1060" height="10" as="geometry" />
        </mxCell>
        <mxCell id="OIX_POswV1e51lXpxc2r-39" value="&lt;span&gt;Label&lt;/span&gt;" style="text;html=1;resizable=0;points=[];autosize=1;align=left;verticalAlign=top;spacingTop=-4;fontSize=14;fontStyle=1" vertex="1" parent="1">
          <mxGeometry x="1668" y="5442" width="50" height="20" as="geometry" />
        </mxCell>
        <mxCell id="OIX_POswV1e51lXpxc2r-40" value="" style="edgeStyle=orthogonalEdgeStyle;html=1;endArrow=open;elbow=vertical;startArrow=none;endFill=0;strokeColor=#545B64;rounded=0;fontSize=14;" edge="1" parent="1">
          <mxGeometry width="100" relative="1" as="geometry">
            <mxPoint x="1580" y="5620" as="sourcePoint" />
            <mxPoint x="1630" y="5620" as="targetPoint" />
          </mxGeometry>
        </mxCell>
        <mxCell id="OIX_POswV1e51lXpxc2r-41" value="" style="shape=curlyBracket;whiteSpace=wrap;html=1;rounded=1;fontSize=14;" vertex="1" parent="1">
          <mxGeometry x="1641" y="5474" width="20" height="290" as="geometry" />
        </mxCell>
        <mxCell id="OIX_POswV1e51lXpxc2r-42" value="&lt;span&gt;Label&lt;/span&gt;" style="edgeStyle=orthogonalEdgeStyle;html=1;endArrow=open;elbow=vertical;startArrow=none;endFill=0;strokeColor=#545B64;rounded=0;fontSize=14;strokeWidth=2;" edge="1" parent="1">
          <mxGeometry x="-0.037" y="20" width="100" relative="1" as="geometry">
            <mxPoint x="1810" y="5480" as="sourcePoint" />
            <mxPoint x="2080" y="5480" as="targetPoint" />
            <mxPoint as="offset" />
          </mxGeometry>
        </mxCell>
        <mxCell id="OIX_POswV1e51lXpxc2r-43" value="&lt;span&gt;Label&lt;/span&gt;" style="edgeStyle=orthogonalEdgeStyle;html=1;endArrow=none;elbow=vertical;startArrow=open;endFill=0;strokeColor=#545B64;rounded=0;fontSize=14;strokeWidth=2;startFill=0;" edge="1" parent="1">
          <mxGeometry x="-0.037" y="20" width="100" relative="1" as="geometry">
            <mxPoint x="1808" y="5543.5" as="sourcePoint" />
            <mxPoint x="2078" y="5543.5" as="targetPoint" />
            <mxPoint as="offset" />
          </mxGeometry>
        </mxCell>
        <mxCell id="OIX_POswV1e51lXpxc2r-44" value="&lt;span&gt;Label&lt;/span&gt;" style="edgeStyle=orthogonalEdgeStyle;html=1;endArrow=open;elbow=vertical;startArrow=none;endFill=0;strokeColor=#545B64;rounded=0;fontSize=14;strokeWidth=2;" edge="1" parent="1">
          <mxGeometry x="-0.037" y="20" width="100" relative="1" as="geometry">
            <mxPoint x="1820" y="5710" as="sourcePoint" />
            <mxPoint x="1940" y="5710" as="targetPoint" />
            <mxPoint as="offset" />
          </mxGeometry>
        </mxCell>
        <mxCell id="OIX_POswV1e51lXpxc2r-45" value="&lt;span&gt;Label&lt;/span&gt;" style="edgeStyle=orthogonalEdgeStyle;html=1;endArrow=open;elbow=vertical;startArrow=none;endFill=0;strokeColor=#545B64;rounded=0;fontSize=14;strokeWidth=2;" edge="1" parent="1">
          <mxGeometry x="-0.037" y="20" width="100" relative="1" as="geometry">
            <mxPoint x="2064" y="5713" as="sourcePoint" />
            <mxPoint x="2150" y="5713" as="targetPoint" />
            <mxPoint as="offset" />
          </mxGeometry>
        </mxCell>
        <mxCell id="OIX_POswV1e51lXpxc2r-46" value="Label" style="text;html=1;resizable=0;points=[];autosize=1;align=left;verticalAlign=top;spacingTop=-4;fontSize=16;fontStyle=1" vertex="1" parent="1">
          <mxGeometry x="1292" y="5802" width="50" height="20" as="geometry" />
        </mxCell>
        <mxCell id="OIX_POswV1e51lXpxc2r-47" value="&lt;span&gt;Label&lt;/span&gt;" style="text;html=1;resizable=0;points=[];autosize=1;align=left;verticalAlign=top;spacingTop=-4;fontSize=14;fontStyle=1" vertex="1" parent="1">
          <mxGeometry x="1362" y="5882" width="50" height="20" as="geometry" />
        </mxCell>
        <mxCell id="OIX_POswV1e51lXpxc2r-48" value="" style="shape=curlyBracket;whiteSpace=wrap;html=1;rounded=1;fontSize=14;" vertex="1" parent="1">
          <mxGeometry x="1302" y="5917" width="20" height="290" as="geometry" />
        </mxCell>
        <mxCell id="OIX_POswV1e51lXpxc2r-49" value="Video Events" style="edgeStyle=orthogonalEdgeStyle;html=1;endArrow=open;elbow=vertical;startArrow=none;endFill=0;strokeColor=#545B64;rounded=0;fontSize=14;strokeWidth=2;" edge="1" parent="1">
          <mxGeometry x="-0.037" y="20" width="100" relative="1" as="geometry">
            <mxPoint x="1486.999999999999" y="5979" as="sourcePoint" />
            <mxPoint x="1568" y="5979" as="targetPoint" />
            <mxPoint as="offset" />
          </mxGeometry>
        </mxCell>
        <mxCell id="OIX_POswV1e51lXpxc2r-50" value="" style="edgeStyle=orthogonalEdgeStyle;html=1;endArrow=open;elbow=vertical;startArrow=none;endFill=0;strokeColor=#545B64;rounded=0;fontSize=14;strokeWidth=2;" edge="1" parent="1">
          <mxGeometry x="-0.037" y="20" width="100" relative="1" as="geometry">
            <mxPoint x="1668.5" y="5975.5" as="sourcePoint" />
            <mxPoint x="1749.499999999999" y="5975.5" as="targetPoint" />
            <mxPoint as="offset" />
          </mxGeometry>
        </mxCell>
        <mxCell id="OIX_POswV1e51lXpxc2r-51" value="" style="edgeStyle=orthogonalEdgeStyle;html=1;endArrow=open;elbow=vertical;startArrow=none;endFill=0;strokeColor=#545B64;rounded=0;fontSize=14;strokeWidth=2;" edge="1" parent="1">
          <mxGeometry x="-0.037" y="20" width="100" relative="1" as="geometry">
            <mxPoint x="1848" y="5975.5" as="sourcePoint" />
            <mxPoint x="1929" y="5975.5" as="targetPoint" />
            <mxPoint as="offset" />
          </mxGeometry>
        </mxCell>
        <mxCell id="OIX_POswV1e51lXpxc2r-52" value="" style="edgeStyle=orthogonalEdgeStyle;html=1;endArrow=open;elbow=vertical;startArrow=none;endFill=0;strokeColor=#545B64;rounded=0;fontSize=14;strokeWidth=2;" edge="1" parent="1">
          <mxGeometry x="-0.037" y="20" width="100" relative="1" as="geometry">
            <mxPoint x="2036.999999999999" y="5973" as="sourcePoint" />
            <mxPoint x="2118" y="5973" as="targetPoint" />
            <mxPoint as="offset" />
          </mxGeometry>
        </mxCell>
        <mxCell id="OIX_POswV1e51lXpxc2r-53" value="Video Stream" style="edgeStyle=orthogonalEdgeStyle;html=1;endArrow=open;elbow=vertical;startArrow=none;endFill=0;strokeColor=#545B64;rounded=0;fontSize=14;strokeWidth=2;" edge="1" parent="1">
          <mxGeometry x="0.0038" y="-11" width="100" relative="1" as="geometry">
            <mxPoint x="1487.5" y="6138.5" as="sourcePoint" />
            <mxPoint x="1698" y="6139" as="targetPoint" />
            <mxPoint as="offset" />
            <Array as="points">
              <mxPoint x="1593" y="6139" />
            </Array>
          </mxGeometry>
        </mxCell>
        <mxCell id="OIX_POswV1e51lXpxc2r-54" value="" style="edgeStyle=orthogonalEdgeStyle;html=1;endArrow=open;elbow=vertical;startArrow=none;endFill=0;strokeColor=#545B64;rounded=0;fontSize=14;strokeWidth=2;" edge="1" parent="1">
          <mxGeometry x="0.0038" y="-11" width="100" relative="1" as="geometry">
            <mxPoint x="1800.5714285714284" y="6138.714285714286" as="sourcePoint" />
            <mxPoint x="1988" y="6139" as="targetPoint" />
            <mxPoint as="offset" />
            <Array as="points">
              <mxPoint x="1906" y="6139" />
            </Array>
          </mxGeometry>
        </mxCell>
        <mxCell id="OIX_POswV1e51lXpxc2r-55" value="Build" style="outlineConnect=0;gradientColor=none;fontColor=#545B64;strokeColor=none;fillColor=#879196;dashed=0;verticalLabelPosition=bottom;verticalAlign=top;align=center;html=1;fontSize=12;fontStyle=0;aspect=fixed;shape=mxgraph.aws4.illustration_devices;pointerEvents=1" vertex="1" parent="1">
          <mxGeometry x="2188" y="5405" width="52" height="38" as="geometry" />
        </mxCell>
        <mxCell id="OIX_POswV1e51lXpxc2r-56" value="Train" style="outlineConnect=0;gradientColor=none;fontColor=#545B64;strokeColor=none;fillColor=#879196;dashed=0;verticalLabelPosition=bottom;verticalAlign=top;align=center;html=1;fontSize=12;fontStyle=0;aspect=fixed;shape=mxgraph.aws4.illustration_devices;pointerEvents=1" vertex="1" parent="1">
          <mxGeometry x="2118" y="5493" width="52" height="38" as="geometry" />
        </mxCell>
        <mxCell id="OIX_POswV1e51lXpxc2r-57" value="Optimize" style="outlineConnect=0;gradientColor=none;fontColor=#545B64;strokeColor=none;fillColor=#879196;dashed=0;verticalLabelPosition=bottom;verticalAlign=top;align=center;html=1;fontSize=12;fontStyle=0;aspect=fixed;shape=mxgraph.aws4.illustration_devices;pointerEvents=1" vertex="1" parent="1">
          <mxGeometry x="2258" y="5493" width="52" height="38" as="geometry" />
        </mxCell>
        <mxCell id="OIX_POswV1e51lXpxc2r-58" value="" style="edgeStyle=orthogonalEdgeStyle;html=1;endArrow=open;elbow=vertical;startArrow=none;endFill=0;strokeColor=#545B64;rounded=0;fontSize=14;" edge="1" parent="1">
          <mxGeometry width="100" relative="1" as="geometry">
            <mxPoint x="2184" y="5519" as="sourcePoint" />
            <mxPoint x="2244" y="5519" as="targetPoint" />
          </mxGeometry>
        </mxCell>
        <mxCell id="OIX_POswV1e51lXpxc2r-59" value="" style="edgeStyle=orthogonalEdgeStyle;html=1;endArrow=open;elbow=vertical;startArrow=none;endFill=0;strokeColor=#545B64;rounded=0;fontSize=14;" edge="1" parent="1">
          <mxGeometry width="100" relative="1" as="geometry">
            <mxPoint x="2218" y="5461.967741935484" as="sourcePoint" />
            <mxPoint x="2218" y="5481.967741935484" as="targetPoint" />
          </mxGeometry>
        </mxCell>
        <mxCell id="OIX_POswV1e51lXpxc2r-60" value="" style="rounded=0;whiteSpace=wrap;html=1;fillColor=#EAEDED;fontSize=22;fontColor=#FFFFFF;strokeColor=none;labelBackgroundColor=none;" vertex="1" parent="1">
          <mxGeometry x="2368.5" y="4050" width="539" height="1220" as="geometry" />
        </mxCell>
        <mxCell id="OIX_POswV1e51lXpxc2r-61" value="1" style="rounded=1;whiteSpace=wrap;html=1;fillColor=#007CBD;strokeColor=none;fontColor=#FFFFFF;fontStyle=1;fontSize=22;labelBackgroundColor=none;" vertex="1" parent="1">
          <mxGeometry x="2386.5" y="4062" width="40" height="38" as="geometry" />
        </mxCell>
        <mxCell id="OIX_POswV1e51lXpxc2r-62" value="2" style="rounded=1;whiteSpace=wrap;html=1;fillColor=#007CBD;strokeColor=none;fontColor=#FFFFFF;fontStyle=1;fontSize=22;labelBackgroundColor=none;" vertex="1" parent="1">
          <mxGeometry x="2385" y="4184" width="40" height="38" as="geometry" />
        </mxCell>
        <mxCell id="OIX_POswV1e51lXpxc2r-63" value="3" style="rounded=1;whiteSpace=wrap;html=1;fillColor=#007CBD;strokeColor=none;fontColor=#FFFFFF;fontStyle=1;fontSize=22;labelBackgroundColor=none;" vertex="1" parent="1">
          <mxGeometry x="2385" y="4304" width="40" height="38" as="geometry" />
        </mxCell>
        <mxCell id="OIX_POswV1e51lXpxc2r-64" value="4" style="rounded=1;whiteSpace=wrap;html=1;fillColor=#007CBD;strokeColor=none;fontColor=#FFFFFF;fontStyle=1;fontSize=22;labelBackgroundColor=none;" vertex="1" parent="1">
          <mxGeometry x="2385" y="4418" width="40" height="38" as="geometry" />
        </mxCell>
        <mxCell id="OIX_POswV1e51lXpxc2r-65" value="5" style="rounded=1;whiteSpace=wrap;html=1;fillColor=#007CBD;strokeColor=none;fontColor=#FFFFFF;fontStyle=1;fontSize=22;labelBackgroundColor=none;" vertex="1" parent="1">
          <mxGeometry x="2386.5" y="4535" width="40" height="38" as="geometry" />
        </mxCell>
        <mxCell id="OIX_POswV1e51lXpxc2r-66" value="6" style="rounded=1;whiteSpace=wrap;html=1;fillColor=#007CBD;strokeColor=none;fontColor=#FFFFFF;fontStyle=1;fontSize=22;labelBackgroundColor=none;" vertex="1" parent="1">
          <mxGeometry x="2387.5" y="4650" width="40" height="38" as="geometry" />
        </mxCell>
        <mxCell id="OIX_POswV1e51lXpxc2r-67" value="7" style="rounded=1;whiteSpace=wrap;html=1;fillColor=#007CBD;strokeColor=none;fontColor=#FFFFFF;fontStyle=1;fontSize=22;labelBackgroundColor=none;" vertex="1" parent="1">
          <mxGeometry x="2387" y="4766" width="40" height="38" as="geometry" />
        </mxCell>
        <mxCell id="OIX_POswV1e51lXpxc2r-68" value="8" style="rounded=1;whiteSpace=wrap;html=1;fillColor=#007CBD;strokeColor=none;fontColor=#FFFFFF;fontStyle=1;fontSize=22;labelBackgroundColor=none;" vertex="1" parent="1">
          <mxGeometry x="2387.5" y="4884" width="40" height="38" as="geometry" />
        </mxCell>
        <mxCell id="OIX_POswV1e51lXpxc2r-69" value="9" style="rounded=1;whiteSpace=wrap;html=1;fillColor=#007CBD;strokeColor=none;fontColor=#FFFFFF;fontStyle=1;fontSize=22;labelBackgroundColor=none;" vertex="1" parent="1">
          <mxGeometry x="2385.5" y="5004" width="40" height="38" as="geometry" />
        </mxCell>
        <mxCell id="OIX_POswV1e51lXpxc2r-70" value="&lt;span&gt;Lorem ipsum dolor sit amet, consectetur adipiscing elit, sed do eiusmod tempor incididunt ut labore et dolore magna aliqua. Ut enim ad minim veniam, quis nostrud exercitation ullamco laboris nisi ut aliquip ex ea commodo consequat. Duis aute irure dolor in reprehenderit in voluptate velit esse cillum dolore eu fugiat nulla pariatur. Excepteur sint occaecat cupidatat non proident, sunt in culpa qui officia deserunt mollit anim id est laborum.&lt;/span&gt;&lt;br&gt;" style="text;html=1;align=left;verticalAlign=top;spacingTop=-4;fontSize=14;labelBackgroundColor=none;whiteSpace=wrap;" vertex="1" parent="1">
          <mxGeometry x="2438" y="4061.5" width="449" height="118" as="geometry" />
        </mxCell>
        <mxCell id="OIX_POswV1e51lXpxc2r-71" value="&lt;span&gt;Lorem ipsum dolor sit amet, consectetur adipiscing elit, sed do eiusmod tempor incididunt ut labore et dolore magna aliqua. Ut enim ad minim veniam, quis nostrud exercitation ullamco laboris nisi ut aliquip ex ea commodo consequat. Duis aute irure dolor in reprehenderit in voluptate velit esse cillum dolore eu fugiat nulla pariatur. Excepteur sint occaecat cupidatat non proident, sunt in culpa qui officia deserunt mollit anim id est laborum.&lt;/span&gt;&lt;br&gt;" style="text;html=1;align=left;verticalAlign=top;spacingTop=-4;fontSize=14;labelBackgroundColor=none;whiteSpace=wrap;" vertex="1" parent="1">
          <mxGeometry x="2437" y="4184.5" width="450" height="115" as="geometry" />
        </mxCell>
        <mxCell id="OIX_POswV1e51lXpxc2r-72" value="&lt;span&gt;Lorem ipsum dolor sit amet, consectetur adipiscing elit, sed do eiusmod tempor incididunt ut labore et dolore magna aliqua. Ut enim ad minim veniam, quis nostrud exercitation ullamco laboris nisi ut aliquip ex ea commodo consequat. Duis aute irure dolor in reprehenderit in voluptate velit esse cillum dolore eu fugiat nulla pariatur. Excepteur sint occaecat cupidatat non proident, sunt in culpa qui officia deserunt mollit anim id est laborum.&lt;/span&gt;&lt;br&gt;" style="text;html=1;align=left;verticalAlign=top;spacingTop=-4;fontSize=14;labelBackgroundColor=none;whiteSpace=wrap;" vertex="1" parent="1">
          <mxGeometry x="2437" y="4302.5" width="450" height="117" as="geometry" />
        </mxCell>
        <mxCell id="OIX_POswV1e51lXpxc2r-73" value="&lt;span&gt;Lorem ipsum dolor sit amet, consectetur adipiscing elit, sed do eiusmod tempor incididunt ut labore et dolore magna aliqua. Ut enim ad minim veniam, quis nostrud exercitation ullamco laboris nisi ut aliquip ex ea commodo consequat. Duis aute irure dolor in reprehenderit in voluptate velit esse cillum dolore eu fugiat nulla pariatur. Excepteur sint occaecat cupidatat non proident, sunt in culpa qui officia deserunt mollit anim id est laborum.&lt;/span&gt;&lt;br&gt;" style="text;html=1;align=left;verticalAlign=top;spacingTop=-4;fontSize=14;labelBackgroundColor=none;whiteSpace=wrap;" vertex="1" parent="1">
          <mxGeometry x="2437" y="4418.5" width="450" height="121" as="geometry" />
        </mxCell>
        <mxCell id="OIX_POswV1e51lXpxc2r-74" value="&lt;span&gt;Lorem ipsum dolor sit amet, consectetur adipiscing elit, sed do eiusmod tempor incididunt ut labore et dolore magna aliqua. Ut enim ad minim veniam, quis nostrud exercitation ullamco laboris nisi ut aliquip ex ea commodo consequat. Duis aute irure dolor in reprehenderit in voluptate velit esse cillum dolore eu fugiat nulla pariatur. Excepteur sint occaecat cupidatat non proident, sunt in culpa qui officia deserunt mollit anim id est laborum.&lt;/span&gt;&lt;br&gt;" style="text;html=1;align=left;verticalAlign=top;spacingTop=-4;fontSize=14;labelBackgroundColor=none;whiteSpace=wrap;" vertex="1" parent="1">
          <mxGeometry x="2438" y="4535.5" width="449" height="114" as="geometry" />
        </mxCell>
        <mxCell id="OIX_POswV1e51lXpxc2r-75" value="&lt;span&gt;Lorem ipsum dolor sit amet, consectetur adipiscing elit, sed do eiusmod tempor incididunt ut labore et dolore magna aliqua. Ut enim ad minim veniam, quis nostrud exercitation ullamco laboris nisi ut aliquip ex ea commodo consequat. Duis aute irure dolor in reprehenderit in voluptate velit esse cillum dolore eu fugiat nulla pariatur. Excepteur sint occaecat cupidatat non proident, sunt in culpa qui officia deserunt mollit anim id est laborum.&lt;/span&gt;&lt;br&gt;" style="text;html=1;align=left;verticalAlign=top;spacingTop=-4;fontSize=14;labelBackgroundColor=none;whiteSpace=wrap;" vertex="1" parent="1">
          <mxGeometry x="2438" y="4651.5" width="450" height="118" as="geometry" />
        </mxCell>
        <mxCell id="OIX_POswV1e51lXpxc2r-76" value="&lt;span&gt;Lorem ipsum dolor sit amet, consectetur adipiscing elit, sed do eiusmod tempor incididunt ut labore et dolore magna aliqua. Ut enim ad minim veniam, quis nostrud exercitation ullamco laboris nisi ut aliquip ex ea commodo consequat. Duis aute irure dolor in reprehenderit in voluptate velit esse cillum dolore eu fugiat nulla pariatur. Excepteur sint occaecat cupidatat non proident, sunt in culpa qui officia deserunt mollit anim id est laborum.&lt;/span&gt;&lt;br&gt;" style="text;html=1;align=left;verticalAlign=top;spacingTop=-4;fontSize=14;labelBackgroundColor=none;whiteSpace=wrap;" vertex="1" parent="1">
          <mxGeometry x="2438" y="4766.5" width="449" height="113" as="geometry" />
        </mxCell>
        <mxCell id="OIX_POswV1e51lXpxc2r-77" value="&lt;span&gt;Lorem ipsum dolor sit amet, consectetur adipiscing elit, sed do eiusmod tempor incididunt ut labore et dolore magna aliqua. Ut enim ad minim veniam, quis nostrud exercitation ullamco laboris nisi ut aliquip ex ea commodo consequat. Duis aute irure dolor in reprehenderit in voluptate velit esse cillum dolore eu fugiat nulla pariatur. Excepteur sint occaecat cupidatat non proident, sunt in culpa qui officia deserunt mollit anim id est laborum.&lt;/span&gt;&lt;br&gt;" style="text;html=1;align=left;verticalAlign=top;spacingTop=-4;fontSize=14;labelBackgroundColor=none;whiteSpace=wrap;" vertex="1" parent="1">
          <mxGeometry x="2438" y="4885.5" width="449" height="124" as="geometry" />
        </mxCell>
        <mxCell id="OIX_POswV1e51lXpxc2r-78" value="&lt;span&gt;Lorem ipsum dolor sit amet, consectetur adipiscing elit, sed do eiusmod tempor incididunt ut labore et dolore magna aliqua. Ut enim ad minim veniam, quis nostrud exercitation ullamco laboris nisi ut aliquip ex ea commodo consequat. Duis aute irure dolor in reprehenderit in voluptate velit esse cillum dolore eu fugiat nulla pariatur. Excepteur sint occaecat cupidatat non proident, sunt in culpa qui officia deserunt mollit anim id est laborum.&lt;/span&gt;&lt;br&gt;" style="text;html=1;align=left;verticalAlign=top;spacingTop=-4;fontSize=14;labelBackgroundColor=none;whiteSpace=wrap;" vertex="1" parent="1">
          <mxGeometry x="2438" y="5004.5" width="449" height="115" as="geometry" />
        </mxCell>
        <mxCell id="OIX_POswV1e51lXpxc2r-79" value="10" style="rounded=1;whiteSpace=wrap;html=1;fillColor=#007CBD;strokeColor=none;fontColor=#FFFFFF;fontStyle=1;fontSize=22;labelBackgroundColor=none;" vertex="1" parent="1">
          <mxGeometry x="2386.5" y="5129.5" width="40" height="38" as="geometry" />
        </mxCell>
        <mxCell id="OIX_POswV1e51lXpxc2r-80" value="&lt;span&gt;Lorem ipsum dolor sit amet, consectetur adipiscing elit, sed do eiusmod tempor incididunt ut labore et dolore magna aliqua. Ut enim ad minim veniam, quis nostrud exercitation ullamco laboris nisi ut aliquip ex ea commodo consequat. Duis aute irure dolor in reprehenderit in voluptate velit esse cillum dolore eu fugiat nulla pariatur. Excepteur sint occaecat cupidatat non proident, sunt in culpa qui officia deserunt mollit anim id est laborum.&lt;/span&gt;&lt;br&gt;" style="text;html=1;align=left;verticalAlign=top;spacingTop=-4;fontSize=14;labelBackgroundColor=none;whiteSpace=wrap;" vertex="1" parent="1">
          <mxGeometry x="2439" y="5130" width="449" height="115" as="geometry" />
        </mxCell>
        <mxCell id="OIX_POswV1e51lXpxc2r-81" value="&lt;font color=&quot;#ffffff&quot; style=&quot;font-size: 17px&quot;&gt;Nginx&lt;/font&gt;" style="rounded=1;whiteSpace=wrap;html=1;gradientColor=#277116;fillColor=#60A337;fontSize=17;strokeColor=none;fontStyle=1" vertex="1" parent="1">
          <mxGeometry x="2180.5" y="4380" width="121" height="40" as="geometry" />
        </mxCell>
        <mxCell id="OIX_POswV1e51lXpxc2r-82" value="devices" style="outlineConnect=0;gradientColor=none;fontColor=#545B64;strokeColor=none;fillColor=#879196;dashed=0;verticalLabelPosition=bottom;verticalAlign=top;align=center;html=1;fontSize=12;fontStyle=0;aspect=fixed;shape=mxgraph.aws4.illustration_devices;pointerEvents=1" vertex="1" parent="1">
          <mxGeometry x="1330" y="4245" width="100" height="73" as="geometry" />
        </mxCell>
        <mxCell id="OIX_POswV1e51lXpxc2r-83" value="门户" style="rounded=1;whiteSpace=wrap;html=1;fontSize=17;dashed=1;" vertex="1" parent="1">
          <mxGeometry x="1459" y="4263.5" width="870" height="36" as="geometry" />
        </mxCell>
        <mxCell id="OIX_POswV1e51lXpxc2r-84" value="1" style="rounded=1;whiteSpace=wrap;html=1;fillColor=#007CBD;strokeColor=none;fontColor=#FFFFFF;fontStyle=1;fontSize=22;" vertex="1" parent="1">
          <mxGeometry x="1269" y="4267.5" width="40" height="38" as="geometry" />
        </mxCell>
        <mxCell id="OIX_POswV1e51lXpxc2r-89" value="d" style="rounded=1;whiteSpace=wrap;html=1;fontSize=17;strokeColor=#277116;strokeWidth=3;fontColor=#277116;fontStyle=1;dashed=1;fillColor=#FFFFFF;gradientColor=#60A337;" vertex="1" parent="1">
          <mxGeometry x="1390" y="4510" width="121" height="120" as="geometry" />
        </mxCell>
        <mxCell id="OIX_POswV1e51lXpxc2r-90" value="&lt;font color=&quot;#ffffff&quot; style=&quot;font-size: 17px&quot;&gt;Kubernets&lt;/font&gt;" style="rounded=1;whiteSpace=wrap;html=1;gradientColor=#277116;fillColor=#60A337;fontSize=17;strokeColor=none;fontStyle=1" vertex="1" parent="1">
          <mxGeometry x="1565.5" y="4380" width="121" height="40" as="geometry" />
        </mxCell>
        <mxCell id="OIX_POswV1e51lXpxc2r-91" value="&lt;font color=&quot;#ffffff&quot; style=&quot;font-size: 17px&quot;&gt;Docker&lt;/font&gt;" style="rounded=1;whiteSpace=wrap;html=1;gradientColor=#277116;fillColor=#60A337;fontSize=17;strokeColor=none;fontStyle=1" vertex="1" parent="1">
          <mxGeometry x="1721" y="4380" width="121" height="40" as="geometry" />
        </mxCell>
        <mxCell id="OIX_POswV1e51lXpxc2r-92" value="&lt;font color=&quot;#ffffff&quot; style=&quot;font-size: 17px&quot;&gt;SiteMesh&lt;/font&gt;" style="rounded=1;whiteSpace=wrap;html=1;gradientColor=#277116;fillColor=#60A337;fontSize=17;strokeColor=none;fontStyle=1" vertex="1" parent="1">
          <mxGeometry x="1573" y="4460" width="121" height="40" as="geometry" />
        </mxCell>
        <mxCell id="OIX_POswV1e51lXpxc2r-93" value="&lt;font color=&quot;#ffffff&quot; style=&quot;font-size: 17px&quot;&gt;MySql&lt;/font&gt;" style="rounded=1;whiteSpace=wrap;html=1;gradientColor=#277116;fillColor=#60A337;fontSize=17;strokeColor=none;fontStyle=1" vertex="1" parent="1">
          <mxGeometry x="1573" y="4620" width="121" height="40" as="geometry" />
        </mxCell>
        <mxCell id="OIX_POswV1e51lXpxc2r-94" value="&lt;font color=&quot;#ffffff&quot; style=&quot;font-size: 17px&quot;&gt;LVS&lt;/font&gt;" style="rounded=1;whiteSpace=wrap;html=1;gradientColor=#277116;fillColor=#60A337;fontSize=17;strokeColor=none;fontStyle=1" vertex="1" parent="1">
          <mxGeometry x="1880" y="4380" width="121" height="40" as="geometry" />
        </mxCell>
        <mxCell id="OIX_POswV1e51lXpxc2r-95" value="&lt;font color=&quot;#ffffff&quot;&gt;Keepalived&lt;/font&gt;" style="rounded=1;whiteSpace=wrap;html=1;gradientColor=#277116;fillColor=#60A337;fontSize=17;strokeColor=none;fontStyle=1" vertex="1" parent="1">
          <mxGeometry x="2031" y="4380" width="121" height="40" as="geometry" />
        </mxCell>
        <mxCell id="OIX_POswV1e51lXpxc2r-96" value="&lt;font color=&quot;#ffffff&quot; style=&quot;font-size: 17px&quot;&gt;SpringCloud&lt;/font&gt;" style="rounded=1;whiteSpace=wrap;html=1;gradientColor=#277116;fillColor=#60A337;fontSize=17;strokeColor=none;fontStyle=1" vertex="1" parent="1">
          <mxGeometry x="1731.5" y="4540" width="121" height="40" as="geometry" />
        </mxCell>
        <mxCell id="OIX_POswV1e51lXpxc2r-97" value="&lt;font color=&quot;#ffffff&quot; style=&quot;font-size: 17px&quot;&gt;Feign&lt;/font&gt;" style="rounded=1;whiteSpace=wrap;html=1;gradientColor=#277116;fillColor=#60A337;fontSize=17;strokeColor=none;fontStyle=1" vertex="1" parent="1">
          <mxGeometry x="1573" y="4540" width="121" height="40" as="geometry" />
        </mxCell>
        <mxCell id="OIX_POswV1e51lXpxc2r-98" value="&lt;font color=&quot;#ffffff&quot; style=&quot;font-size: 17px&quot;&gt;Redis&lt;/font&gt;" style="rounded=1;whiteSpace=wrap;html=1;gradientColor=#277116;fillColor=#60A337;fontSize=17;strokeColor=none;fontStyle=1" vertex="1" parent="1">
          <mxGeometry x="1731.5" y="4620" width="121" height="40" as="geometry" />
        </mxCell>
        <mxCell id="OIX_POswV1e51lXpxc2r-99" value="&lt;font color=&quot;#ffffff&quot; style=&quot;font-size: 17px&quot;&gt;Eureka&lt;/font&gt;" style="rounded=1;whiteSpace=wrap;html=1;gradientColor=#277116;fillColor=#60A337;fontSize=17;strokeColor=none;fontStyle=1" vertex="1" parent="1">
          <mxGeometry x="1891" y="4540" width="121" height="40" as="geometry" />
        </mxCell>
        <mxCell id="OIX_POswV1e51lXpxc2r-100" value="&lt;font color=&quot;#ffffff&quot; style=&quot;font-size: 17px&quot;&gt;Videojs&lt;/font&gt;" style="rounded=1;whiteSpace=wrap;html=1;gradientColor=#277116;fillColor=#60A337;fontSize=17;strokeColor=none;fontStyle=1" vertex="1" parent="1">
          <mxGeometry x="1731.5" y="4460" width="121" height="40" as="geometry" />
        </mxCell>
        <mxCell id="OIX_POswV1e51lXpxc2r-101" value="&lt;font color=&quot;#ffffff&quot; style=&quot;font-size: 17px&quot;&gt;JQuery&lt;/font&gt;" style="rounded=1;whiteSpace=wrap;html=1;gradientColor=#277116;fillColor=#60A337;fontSize=17;strokeColor=none;fontStyle=1" vertex="1" parent="1">
          <mxGeometry x="1884" y="4460" width="121" height="40" as="geometry" />
        </mxCell>
        <mxCell id="OIX_POswV1e51lXpxc2r-102" value="&lt;font color=&quot;#ffffff&quot; style=&quot;font-size: 17px&quot;&gt;Http-flv&lt;/font&gt;" style="rounded=1;whiteSpace=wrap;html=1;gradientColor=#277116;fillColor=#60A337;fontSize=17;strokeColor=none;fontStyle=1" vertex="1" parent="1">
          <mxGeometry x="1733" y="4710.5" width="121" height="40" as="geometry" />
        </mxCell>
        <mxCell id="OIX_POswV1e51lXpxc2r-103" value="&lt;font color=&quot;#ffffff&quot; style=&quot;font-size: 17px&quot;&gt;Rtmp&lt;/font&gt;" style="rounded=1;whiteSpace=wrap;html=1;gradientColor=#277116;fillColor=#60A337;fontSize=17;strokeColor=none;fontStyle=1" vertex="1" parent="1">
          <mxGeometry x="1574" y="4710.5" width="121" height="40" as="geometry" />
        </mxCell>
        <mxCell id="OIX_POswV1e51lXpxc2r-105" value="&lt;font color=&quot;#ffffff&quot; style=&quot;font-size: 17px&quot;&gt;FFmpeg&lt;/font&gt;" style="rounded=1;whiteSpace=wrap;html=1;gradientColor=#277116;fillColor=#60A337;fontSize=17;strokeColor=none;fontStyle=1" vertex="1" parent="1">
          <mxGeometry x="1891" y="4710.5" width="121" height="40" as="geometry" />
        </mxCell>
        <mxCell id="OIX_POswV1e51lXpxc2r-106" value="&lt;font color=&quot;#ffffff&quot; style=&quot;font-size: 17px&quot;&gt;LayUI&lt;/font&gt;" style="rounded=1;whiteSpace=wrap;html=1;gradientColor=#277116;fillColor=#60A337;fontSize=17;strokeColor=none;fontStyle=1" vertex="1" parent="1">
          <mxGeometry x="2042" y="4460" width="121" height="40" as="geometry" />
        </mxCell>
        <mxCell id="OIX_POswV1e51lXpxc2r-107" value="&lt;font color=&quot;#ffffff&quot; style=&quot;font-size: 17px&quot;&gt;SRS&lt;/font&gt;" style="rounded=1;whiteSpace=wrap;html=1;gradientColor=#277116;fillColor=#60A337;fontSize=17;strokeColor=none;fontStyle=1" vertex="1" parent="1">
          <mxGeometry x="2052" y="4710.5" width="121" height="40" as="geometry" />
        </mxCell>
        <mxCell id="OIX_POswV1e51lXpxc2r-108" value="&lt;font color=&quot;#ffffff&quot; style=&quot;font-size: 17px&quot;&gt;flvjs&lt;/font&gt;" style="rounded=1;whiteSpace=wrap;html=1;gradientColor=#277116;fillColor=#60A337;fontSize=17;strokeColor=none;fontStyle=1" vertex="1" parent="1">
          <mxGeometry x="2173" y="4460" width="121" height="40" as="geometry" />
        </mxCell>
      </root>
    </mxGraphModel>
  </diagram>
</mxfile>
